<svg xmlns="http://www.w3.org/2000/svg" viewBox="0 0 50 50">
  <g id="error-img" transform="translate(-1307 -567)">
    <g id="组_5" data-name="组 5" transform="translate(1321 581)">
      <path id="路径_14" data-name="路径 14" d="M2,13C2,7.815,2,5.222,3.61,3.61S7.815,2,13,2s7.778,0,9.389,1.61S24,7.815,24,13s0,7.778-1.612,9.389S18.185,24,13,24s-7.778,0-9.39-1.612S2,18.185,2,13Z" transform="translate(-2 -2)" fill="none" stroke="rgba(117,117,117,0.48)" stroke-width="2"/>
      <circle id="椭圆_1" data-name="椭圆 1" cx="2" cy="2" r="2" transform="translate(13.656 4.209)" fill="none" stroke="rgba(117,117,117,0.48)" stroke-width="2" opacity="0.5"/>
      <path id="路径_15" data-name="路径 15" d="M5,12.97,6.011,12.4a4.315,4.315,0,0,1,4.045.081l3.3,2.117a2.919,2.919,0,0,0,2.558.136,4.426,4.426,0,0,1,3.728.136l2.832,1.633" transform="translate(-2.74 0.492)" fill="none" stroke="rgba(117,117,117,0.48)" stroke-linecap="round" stroke-width="2" opacity="0.5"/>
    </g>
    <rect id="矩形_1" data-name="矩形 1" transform="translate(1307 567)" fill="none"/>
  </g>
</svg>
